<svg width="501" height="231" viewBox="0 0 501 231" fill="none" xmlns="http://www.w3.org/2000/svg">
<path d="M160.155 41.15H188.895V62.22C195.455 47.48 205.555 39.68 222.415 39.47V67.93C201.205 67.7 188.895 75.09 188.895 96.16V151.42H160.155V41.15Z" fill="#0A1333"/>
<path d="M289.435 116.79H316.185C317.385 126.71 321.935 132.4 334.435 132.4C345.525 132.4 350.605 127.96 350.605 120.38C350.605 112.8 344.455 109.63 329.605 107.32C302.045 102.88 291.325 94.4501 291.325 72.9701C291.325 49.9501 311.165 38.6401 332.375 38.6401C355.475 38.6401 372.615 47.4801 375.185 72.7601H348.825C347.235 63.7101 342.475 59.4701 332.655 59.4701C323.415 59.4701 317.985 64.0701 317.985 70.8701C317.985 77.6701 322.955 80.5601 338.015 82.8701C363.985 86.8801 378.255 93.8301 378.255 117.41C378.255 140.99 362.085 153.65 334.635 153.65C306.565 153.67 290.395 140.59 289.425 116.79H289.435Z" fill="#0A1333"/>
<path d="M396.935 97.6301V95.9501C396.935 61.1801 420.035 38.6401 450.255 38.6401C477.035 38.6401 500.805 55.2601 500.805 94.6801V103.11H426.165C426.955 121.53 436.285 131.96 451.945 131.96C465.225 131.96 471.765 125.86 473.545 116.58H500.715C497.345 140.39 479.505 153.67 451.135 153.67C419.715 153.67 396.935 132.81 396.935 97.6301ZM472.845 84.3401C471.855 67.6901 463.925 59.7001 450.255 59.7001C437.365 59.7001 428.655 68.7501 426.465 84.3401H472.855H472.845Z" fill="#0A1333"/>
<path fill-rule="evenodd" clip-rule="evenodd" d="M270.585 41.0601L242.055 53.7201V151.34H270.585V64.6101H270.605V41.16H270.585V41.05V41.0601Z" fill="#0A1333"/>
<path d="M139.285 151.47H99.5548L50.2148 0.550049H89.9348L139.285 151.46V151.47Z" fill="url(#paint0_linear_487_1275)"/>
<path d="M89.8649 0.550049H50.1349L0.794922 151.47H40.5249L89.8649 0.550049Z" fill="url(#paint1_linear_487_1275)"/>
<path d="M280.755 202C282.045 203.22 282.685 205.19 282.685 207.91V214.74C282.685 217.54 282.035 219.57 280.755 220.84C279.465 222.1 277.615 222.73 275.195 222.73C273.805 222.73 272.625 222.53 271.655 222.13C270.685 221.73 269.725 221.1 268.785 220.24L268.415 222.28H263.915V191.47H269.245V202.25C270.075 201.53 270.955 201 271.885 200.67C272.815 200.33 273.935 200.17 275.235 200.17C277.625 200.17 279.465 200.78 280.755 202ZM277.365 208.87C277.365 207.4 277.055 206.35 276.425 205.73C275.795 205.1 274.865 204.79 273.615 204.79C272.645 204.79 271.815 204.95 271.115 205.27C270.425 205.59 269.795 206.06 269.245 206.67V216.2C269.825 216.81 270.455 217.28 271.145 217.6C271.825 217.92 272.645 218.08 273.625 218.08C274.875 218.08 275.815 217.75 276.435 217.1C277.055 216.45 277.375 215.35 277.375 213.79V208.88L277.365 208.87Z" fill="#4B5269"/>
<path d="M306.175 200.62L294.475 230.6H289.225L292.975 220.94L285.395 200.62H290.935L295.595 214.94L300.885 200.62H306.175Z" fill="#4B5269"/>
<path d="M321.905 193.13H327.355V222.27H321.905V193.13Z" fill="#4B5269"/>
<path d="M334.265 193.13H340.055L350.755 213.82V193.13H355.915V222.27H350.125L339.425 201.58V222.27H334.265V193.13Z" fill="#4B5269"/>
<path d="M362.415 193.13H379.355V197.8H367.865V206H378.235V210.67H367.865V222.28H362.415V193.14V193.13Z" fill="#4B5269"/>
<path d="M384.805 193.13H390.255V222.27H384.805V193.13Z" fill="#4B5269"/>
<path d="M397.175 193.13H402.965L413.665 213.82V193.13H418.825V222.27H413.035L402.335 201.58V222.27H397.175V193.13Z" fill="#4B5269"/>
<path d="M425.735 193.13H431.185V222.27H425.735V193.13Z" fill="#4B5269"/>
<path d="M442.795 197.79H435.345V193.12H455.705V197.79H448.255V222.27H442.805V197.79H442.795Z" fill="#4B5269"/>
<path d="M470.985 216.94H460.995L459.495 222.27H453.795L462.575 193.13H469.405L478.185 222.27H472.485L470.985 216.94ZM469.615 212.03L465.995 199.13L462.375 212.03H469.615Z" fill="#4B5269"/>
<path d="M485.465 222.56C483.965 222.45 482.785 222.32 481.925 222.18V217.31C482.815 217.5 483.935 217.66 485.295 217.79C486.655 217.92 488.005 217.98 489.335 217.98C490.865 217.98 492.035 217.87 492.855 217.65C493.675 217.43 494.265 217.05 494.625 216.53C494.985 216 495.165 215.26 495.165 214.28C495.165 213.25 494.985 212.48 494.625 211.97C494.265 211.46 493.745 211.08 493.065 210.85C492.385 210.61 491.295 210.36 489.795 210.08C487.685 209.69 486.085 209.27 484.985 208.83C483.885 208.39 483.015 207.6 482.365 206.48C481.715 205.36 481.385 203.7 481.385 201.5C481.385 199.3 481.755 197.44 482.485 196.15C483.215 194.86 484.345 193.96 485.855 193.45C487.365 192.94 489.355 192.68 491.825 192.68C494.515 192.68 496.885 192.93 498.945 193.43V198.01C496.755 197.62 494.555 197.43 492.365 197.43C490.365 197.43 488.955 197.69 488.135 198.2C487.315 198.71 486.905 199.69 486.905 201.14C486.905 202.08 487.075 202.8 487.425 203.28C487.775 203.76 488.325 204.13 489.065 204.36C489.815 204.6 491.005 204.88 492.645 205.21C494.725 205.63 496.295 206.06 497.345 206.52C498.395 206.98 499.215 207.76 499.805 208.85C500.385 209.95 500.675 211.58 500.675 213.74C500.675 216.13 500.305 217.96 499.575 219.26C498.835 220.55 497.695 221.45 496.135 221.97C494.575 222.48 492.475 222.74 489.805 222.74C488.385 222.74 486.935 222.69 485.435 222.57L485.465 222.56Z" fill="#4B5269"/>
<defs>
<linearGradient id="paint0_linear_487_1275" x1="34.4048" y1="-69.9299" x2="134.595" y2="172.39" gradientUnits="userSpaceOnUse">
<stop stop-color="#A9EFFF"/>
<stop offset="0.02" stop-color="#9AE8FD"/>
<stop offset="0.09" stop-color="#6BD3F7"/>
<stop offset="0.16" stop-color="#45C2F1"/>
<stop offset="0.23" stop-color="#27B4ED"/>
<stop offset="0.3" stop-color="#11ABEA"/>
<stop offset="0.36" stop-color="#04A5E9"/>
<stop offset="0.42" stop-color="#00A3E8"/>
<stop offset="0.69" stop-color="#0083E8"/>
<stop offset="1" stop-color="#0061E7"/>
</linearGradient>
<linearGradient id="paint1_linear_487_1275" x1="0.86492" y1="31.61" x2="158.815" y2="189.33" gradientUnits="userSpaceOnUse">
<stop stop-color="#A9EFFF"/>
<stop offset="0.5" stop-color="#00A3E8"/>
<stop offset="0.56" stop-color="#009AE8"/>
<stop offset="0.67" stop-color="#0083E8"/>
<stop offset="0.78" stop-color="#0061E7"/>
</linearGradient>
</defs>
</svg>
