<svg width="501" height="232" viewBox="0 0 501 232" fill="none" xmlns="http://www.w3.org/2000/svg">
<path d="M159.405 40.5999H188.145V61.6699C194.705 46.9299 204.805 39.1299 221.665 38.9199V67.3799C200.455 67.1499 188.145 74.5399 188.145 95.6099V150.87H159.405V40.5999Z" fill="#E6F4F7"/>
<path d="M288.685 116.24H315.435C316.635 126.16 321.185 131.85 333.685 131.85C344.775 131.85 349.855 127.41 349.855 119.83C349.855 112.25 343.705 109.08 328.855 106.77C301.295 102.33 290.575 93.9001 290.575 72.4201C290.575 49.4001 310.415 38.0901 331.625 38.0901C354.725 38.0901 371.865 46.9301 374.435 72.2101H348.075C346.485 63.1601 341.725 58.9201 331.905 58.9201C322.665 58.9201 317.235 63.5201 317.235 70.3201C317.235 77.1201 322.205 80.0101 337.265 82.3201C363.235 86.3301 377.505 93.2801 377.505 116.86C377.505 140.44 361.335 153.1 333.885 153.1C305.815 153.12 289.645 140.04 288.675 116.24H288.685Z" fill="#E6F4F7"/>
<path d="M396.175 97.0801V95.4001C396.175 60.6301 419.275 38.0901 449.495 38.0901C476.275 38.0901 500.045 54.7101 500.045 94.1301V102.56H425.405C426.195 120.98 435.525 131.41 451.185 131.41C464.465 131.41 471.005 125.31 472.785 116.03H499.955C496.585 139.84 478.745 153.12 450.375 153.12C418.955 153.12 396.175 132.26 396.175 97.0801ZM472.085 83.7901C471.095 67.1401 463.165 59.1501 449.495 59.1501C436.605 59.1501 427.895 68.2001 425.705 83.7901H472.095H472.085Z" fill="#E6F4F7"/>
<path fill-rule="evenodd" clip-rule="evenodd" d="M269.835 40.51L241.305 53.17V150.79H269.835V64.06H269.855V40.61H269.835V40.5V40.51Z" fill="#E6F4F7"/>
<path d="M138.535 150.91H98.8049L49.4648 0H89.1849L138.535 150.91Z" fill="url(#paint0_linear_487_1295)"/>
<path d="M89.1149 0H49.3849L0.0449219 150.91H39.7749L89.1149 0Z" fill="url(#paint1_linear_487_1295)"/>
<path d="M280.005 202.55C281.295 203.77 281.935 205.74 281.935 208.46V215.29C281.935 218.09 281.285 220.12 280.005 221.39C278.715 222.65 276.865 223.28 274.445 223.28C273.055 223.28 271.875 223.08 270.905 222.68C269.935 222.28 268.975 221.65 268.035 220.79L267.665 222.83H263.165V192.02H268.495V202.8C269.325 202.08 270.205 201.55 271.135 201.22C272.065 200.88 273.185 200.72 274.485 200.72C276.875 200.72 278.715 201.33 280.005 202.55ZM276.615 209.42C276.615 207.95 276.305 206.9 275.675 206.28C275.045 205.65 274.115 205.34 272.865 205.34C271.895 205.34 271.065 205.5 270.365 205.82C269.675 206.14 269.045 206.61 268.495 207.22V216.75C269.075 217.36 269.705 217.83 270.395 218.15C271.075 218.47 271.895 218.63 272.875 218.63C274.125 218.63 275.065 218.3 275.685 217.65C276.305 217 276.625 215.9 276.625 214.34V209.43L276.615 209.42Z" fill="#ADBAC7"/>
<path d="M305.415 201.17L293.715 231.15H288.465L292.215 221.49L284.635 201.17H290.175L294.835 215.49L300.125 201.17H305.415Z" fill="#ADBAC7"/>
<path d="M321.155 193.68H326.605V222.82H321.155V193.68Z" fill="#ADBAC7"/>
<path d="M333.515 193.68H339.305L350.005 214.37V193.68H355.165V222.82H349.375L338.675 202.13V222.82H333.515V193.68Z" fill="#ADBAC7"/>
<path d="M361.655 193.68H378.595V198.35H367.105V206.55H377.475V211.22H367.105V222.83H361.655V193.69V193.68Z" fill="#ADBAC7"/>
<path d="M384.055 193.68H389.505V222.82H384.055V193.68Z" fill="#ADBAC7"/>
<path d="M396.415 193.68H402.205L412.905 214.37V193.68H418.065V222.82H412.275L401.575 202.13V222.82H396.415V193.68Z" fill="#ADBAC7"/>
<path d="M424.975 193.68H430.425V222.82H424.975V193.68Z" fill="#ADBAC7"/>
<path d="M442.045 198.35H434.595V193.68H454.955V198.35H447.505V222.83H442.055V198.35H442.045Z" fill="#ADBAC7"/>
<path d="M470.225 217.49H460.235L458.735 222.82H453.035L461.815 193.68H468.645L477.425 222.82H471.725L470.225 217.49ZM468.855 212.58L465.235 199.68L461.615 212.58H468.855Z" fill="#ADBAC7"/>
<path d="M484.715 223.11C483.215 223 482.035 222.87 481.175 222.73V217.86C482.065 218.05 483.185 218.21 484.545 218.34C485.905 218.47 487.255 218.53 488.585 218.53C490.115 218.53 491.285 218.42 492.105 218.2C492.925 217.98 493.515 217.6 493.875 217.08C494.235 216.55 494.415 215.81 494.415 214.83C494.415 213.8 494.235 213.03 493.875 212.52C493.515 212.01 492.995 211.63 492.315 211.4C491.635 211.16 490.545 210.91 489.045 210.63C486.935 210.24 485.335 209.82 484.235 209.38C483.135 208.94 482.265 208.15 481.615 207.03C480.965 205.91 480.635 204.25 480.635 202.05C480.635 199.85 481.005 197.99 481.735 196.7C482.465 195.41 483.595 194.51 485.105 194C486.615 193.49 488.605 193.23 491.075 193.23C493.765 193.23 496.135 193.48 498.195 193.98V198.56C496.005 198.17 493.805 197.98 491.615 197.98C489.615 197.98 488.205 198.24 487.385 198.75C486.565 199.26 486.155 200.24 486.155 201.69C486.155 202.63 486.325 203.35 486.675 203.83C487.025 204.31 487.575 204.68 488.315 204.91C489.065 205.15 490.255 205.43 491.895 205.76C493.975 206.18 495.545 206.61 496.595 207.07C497.645 207.53 498.465 208.31 499.055 209.4C499.635 210.5 499.925 212.13 499.925 214.29C499.925 216.68 499.555 218.51 498.825 219.81C498.085 221.1 496.945 222 495.385 222.52C493.825 223.03 491.725 223.29 489.055 223.29C487.635 223.29 486.185 223.24 484.685 223.12L484.715 223.11Z" fill="#ADBAC7"/>
<defs>
<linearGradient id="paint0_linear_487_1295" x1="33.6548" y1="-70.48" x2="133.845" y2="171.84" gradientUnits="userSpaceOnUse">
<stop stop-color="#A9EFFF"/>
<stop offset="0.02" stop-color="#9AE8FD"/>
<stop offset="0.09" stop-color="#6BD3F7"/>
<stop offset="0.16" stop-color="#45C2F1"/>
<stop offset="0.23" stop-color="#27B4ED"/>
<stop offset="0.3" stop-color="#11ABEA"/>
<stop offset="0.36" stop-color="#04A5E9"/>
<stop offset="0.42" stop-color="#00A3E8"/>
<stop offset="0.69" stop-color="#0083E8"/>
<stop offset="1" stop-color="#0061E7"/>
</linearGradient>
<linearGradient id="paint1_linear_487_1295" x1="0.114926" y1="31.06" x2="158.065" y2="188.77" gradientUnits="userSpaceOnUse">
<stop stop-color="#A9EFFF"/>
<stop offset="0.5" stop-color="#00A3E8"/>
<stop offset="0.56" stop-color="#009AE8"/>
<stop offset="0.67" stop-color="#0083E8"/>
<stop offset="0.78" stop-color="#0061E7"/>
</linearGradient>
</defs>
</svg>
